<svg width="996" height="92" viewBox="0 0 996 92" version="1.1" xmlns="http://www.w3.org/2000/svg" xmlns:xlink="http://www.w3.org/1999/xlink">
<title>GALERIE PHOTO</title>
<desc>Created using Figma</desc>
<g id="Canvas" transform="translate(-8160 -5942)">
<g id="GALERIE PHOTO" opacity="0.08">
<use xlink:href="#path0_fill" transform="translate(8155 5899)" fill="#FFFFFF"/>
</g>
</g>
<defs>
<path id="path0_fill" d="M 49.14 131.74C 53.256 131.74 55.86 130.984 56.952 129.472C 58.128 127.96 58.716 125.398 58.716 121.786L 58.716 97.342L 50.652 97.342L 50.652 94.57L 86.94 94.57L 86.94 97.342L 82.026 97.342L 82.026 132.874L 80.136 132.874C 78.624 130.774 76.482 129.724 73.71 129.724C 72.534 129.724 69.006 130.48 63.126 131.992C 57.33 133.504 52.374 134.26 48.258 134.26C 34.566 134.26 23.94 130.564 16.38 123.172C 8.904 115.78 5.166 104.692 5.166 89.908C 5.166 75.04 9.072 63.574 16.884 55.51C 24.78 47.446 35.364 43.414 48.636 43.414C 53.76 43.414 58.884 44.086 64.008 45.43C 69.216 46.69 72.24 47.32 73.08 47.32C 73.92 47.32 74.55 47.152 74.97 46.816C 75.39 46.396 75.852 45.724 76.356 44.8L 77.742 44.8L 78.75 72.142L 76.482 72.142C 72.366 63.994 68.208 57.61 64.008 52.99C 59.892 48.286 55.272 45.934 50.148 45.934C 37.296 45.934 30.87 58.492 30.87 83.608L 30.87 93.562C 30.87 106.162 32.424 115.696 35.532 122.164C 38.724 128.548 43.26 131.74 49.14 131.74ZM 141.672 130.606L 132.474 103.39L 107.526 103.39L 97.8242 130.606L 107.274 130.606L 107.274 133L 87.9962 133L 87.9962 130.606L 93.9182 130.606L 126.048 44.044L 136.38 44.044L 168.132 130.606L 173.928 130.606L 173.928 133L 132.726 133L 132.726 130.606L 141.672 130.606ZM 120.504 67.606L 108.66 100.618L 131.466 100.618L 120.504 67.606ZM 177.373 44.8L 222.733 44.8L 222.733 47.572L 209.377 47.572L 209.377 130.228L 213.913 130.228C 221.053 130.228 226.723 128.044 230.923 123.676C 235.207 119.308 239.533 112.588 243.901 103.516L 246.547 103.516L 244.153 133L 177.373 133L 177.373 130.228L 184.807 130.228L 184.807 47.572L 177.373 47.572L 177.373 44.8ZM 252.431 44.8L 317.951 44.8L 319.211 69.748L 316.943 69.748C 313.415 61.264 309.719 55.468 305.855 52.36C 301.991 49.168 296.321 47.572 288.845 47.572L 284.435 47.572L 284.435 86.506L 288.719 86.506C 292.667 86.506 295.985 85.036 298.673 82.096C 301.361 79.072 303.251 75.04 304.343 70L 306.233 70L 306.233 107.296L 304.091 107.296C 302.579 100.996 300.521 96.502 297.917 93.814C 295.397 91.126 291.911 89.782 287.459 89.782L 284.435 89.782L 284.435 130.228L 289.223 130.228C 296.951 130.228 303.503 127.918 308.879 123.298C 314.339 118.678 318.077 112.756 320.093 105.532L 322.613 105.532L 321.605 133L 252.431 133L 252.431 130.228L 259.865 130.228L 259.865 47.572L 252.431 47.572L 252.431 44.8ZM 369.74 88.396L 363.062 88.396L 363.062 130.606L 371.252 130.606L 371.252 133L 330.302 133L 330.302 130.606L 338.492 130.606L 338.492 47.194L 330.302 47.194L 330.302 44.8L 368.354 44.8C 379.274 44.8 387.002 45.388 391.538 46.564C 396.158 47.656 399.392 49 401.24 50.596C 405.272 53.872 407.288 59.08 407.288 66.22C 407.288 73.36 405.524 78.484 401.996 81.592C 398.468 84.616 393.092 86.422 385.868 87.01L 385.868 87.388C 392.672 88.312 397.418 90.328 400.106 93.436C 402.794 96.544 404.138 101.752 404.138 109.06L 404.138 115.738C 404.138 120.106 404.348 123.046 404.768 124.558C 405.272 126.07 406.28 126.826 407.792 126.826C 409.304 126.826 410.48 126.154 411.32 124.81C 412.244 123.382 413.084 120.442 413.84 115.99L 415.982 116.242C 415.058 123.382 413.42 128.17 411.068 130.606C 408.8 133.042 404.222 134.26 397.334 134.26C 390.446 134.26 385.532 132.664 382.592 129.472C 379.736 126.196 378.308 120.106 378.308 111.202L 378.308 102.004C 378.308 97.3 377.678 93.856 376.418 91.672C 375.242 89.488 373.016 88.396 369.74 88.396ZM 363.062 47.194L 363.062 86.002L 367.094 86.002C 371.882 86.002 375.41 84.532 377.678 81.592C 380.03 78.652 381.206 73.864 381.206 67.228L 381.206 63.574C 381.206 56.938 380.072 52.57 377.804 50.47C 375.62 48.286 372.092 47.194 367.22 47.194L 363.062 47.194ZM 421.755 44.8L 460.185 44.8L 460.185 47.194L 453.255 47.194L 453.255 130.606L 460.185 130.606L 460.185 133L 421.755 133L 421.755 130.606L 428.685 130.606L 428.685 47.194L 421.755 47.194L 421.755 44.8ZM 466.041 44.8L 531.561 44.8L 532.821 69.748L 530.553 69.748C 527.025 61.264 523.329 55.468 519.465 52.36C 515.601 49.168 509.931 47.572 502.455 47.572L 498.045 47.572L 498.045 86.506L 502.329 86.506C 506.277 86.506 509.595 85.036 512.283 82.096C 514.971 79.072 516.861 75.04 517.953 70L 519.843 70L 519.843 107.296L 517.701 107.296C 516.189 100.996 514.131 96.502 511.527 93.814C 509.007 91.126 505.521 89.782 501.069 89.782L 498.045 89.782L 498.045 130.228L 502.833 130.228C 510.561 130.228 517.113 127.918 522.489 123.298C 527.949 118.678 531.687 112.756 533.703 105.532L 536.223 105.532L 535.215 133L 466.041 133L 466.041 130.228L 473.475 130.228L 473.475 47.572L 466.041 47.572L 466.041 44.8ZM 566.552 44.8L 603.596 44.8C 616.28 44.8 625.73 46.648 631.946 50.344C 638.162 53.956 641.27 60.466 641.27 69.874C 641.27 80.29 637.49 87.472 629.93 91.42C 622.874 95.032 613.004 96.838 600.32 96.838L 599.312 96.838L 599.312 130.606L 615.062 130.606L 615.062 133L 566.552 133L 566.552 130.606L 574.742 130.606L 574.742 47.194L 566.552 47.194L 566.552 44.8ZM 599.312 47.194L 599.312 94.444L 601.958 94.444C 606.998 94.444 610.484 92.722 612.416 89.278C 614.348 85.834 615.314 80.248 615.314 72.52L 615.314 66.472C 615.314 59.332 614.39 54.334 612.542 51.478C 610.778 48.622 607.502 47.194 602.714 47.194L 599.312 47.194ZM 647.166 44.8L 686.478 44.8L 686.478 47.194L 679.17 47.194L 679.17 86.254L 704.244 86.254L 704.244 47.194L 696.81 47.194L 696.81 44.8L 736.248 44.8L 736.248 47.194L 728.814 47.194L 728.814 130.606L 736.248 130.606L 736.248 133L 696.81 133L 696.81 130.606L 704.244 130.606L 704.244 89.53L 679.17 89.53L 679.17 130.606L 686.478 130.606L 686.478 133L 647.166 133L 647.166 130.606L 654.6 130.606L 654.6 47.194L 647.166 47.194L 647.166 44.8ZM 802.022 94.066L 802.022 84.742C 802.022 69.37 801.266 59.668 799.754 55.636C 798.074 51.016 795.68 48.16 792.572 47.068C 790.808 46.396 788.666 46.06 786.146 46.06C 783.626 46.06 781.442 46.396 779.594 47.068C 777.83 47.74 776.36 48.916 775.184 50.596C 774.008 52.276 773.042 54.04 772.286 55.888C 771.614 57.736 771.068 60.34 770.648 63.7C 770.144 68.572 769.892 75.754 769.892 85.246L 769.892 94.318C 769.892 104.566 770.27 111.874 771.026 116.242C 771.866 120.526 772.874 123.592 774.05 125.44C 776.654 129.556 780.686 131.614 786.146 131.614C 792.782 131.614 797.066 128.842 798.998 123.298C 801.014 117.67 802.022 107.926 802.022 94.066ZM 785.894 134.26C 771.866 134.26 761.366 130.48 754.394 122.92C 747.506 115.276 744.062 104.272 744.062 89.908C 744.062 75.46 747.758 64.12 755.15 55.888C 762.626 47.572 773.168 43.414 786.776 43.414C 800.384 43.414 810.632 47.362 817.52 55.258C 824.492 63.07 827.978 74.2 827.978 88.648C 827.978 103.096 824.45 114.31 817.394 122.29C 810.422 130.27 799.922 134.26 785.894 134.26ZM 909.472 44.8L 910.732 76.426L 908.338 76.426C 904.642 65.254 901.366 57.652 898.51 53.62C 895.654 49.504 891.538 47.446 886.162 47.446L 884.65 47.446L 884.65 130.354L 895.36 130.354L 895.36 133L 849.37 133L 849.37 130.354L 860.08 130.354L 860.08 47.446L 858.442 47.446C 853.066 47.446 848.908 49.588 845.968 53.872C 843.028 58.072 839.794 65.59 836.266 76.426L 833.872 76.426L 835.132 44.8L 909.472 44.8ZM 974.657 94.066L 974.657 84.742C 974.657 69.37 973.901 59.668 972.389 55.636C 970.709 51.016 968.315 48.16 965.207 47.068C 963.443 46.396 961.301 46.06 958.781 46.06C 956.261 46.06 954.077 46.396 952.229 47.068C 950.465 47.74 948.995 48.916 947.819 50.596C 946.643 52.276 945.677 54.04 944.921 55.888C 944.249 57.736 943.703 60.34 943.283 63.7C 942.779 68.572 942.527 75.754 942.527 85.246L 942.527 94.318C 942.527 104.566 942.905 111.874 943.661 116.242C 944.501 120.526 945.509 123.592 946.685 125.44C 949.289 129.556 953.321 131.614 958.781 131.614C 965.417 131.614 969.701 128.842 971.633 123.298C 973.649 117.67 974.657 107.926 974.657 94.066ZM 958.529 134.26C 944.501 134.26 934.001 130.48 927.029 122.92C 920.141 115.276 916.697 104.272 916.697 89.908C 916.697 75.46 920.393 64.12 927.785 55.888C 935.261 47.572 945.803 43.414 959.411 43.414C 973.019 43.414 983.267 47.362 990.155 55.258C 997.127 63.07 1000.61 74.2 1000.61 88.648C 1000.61 103.096 997.085 114.31 990.029 122.29C 983.057 130.27 972.557 134.26 958.529 134.26Z"/>
</defs>
</svg>
