<svg width="545" height="127" viewBox="0 0 545 127" version="1.1" xmlns="http://www.w3.org/2000/svg" xmlns:xlink="http://www.w3.org/1999/xlink">
<title>INTRO</title>
<desc>Created using Figma</desc>
<g id="Canvas" transform="translate(-8521 -2210)">
<g id="INTRO" opacity="0.08">
<use xlink:href="#path0_fill" transform="translate(8488 2149.18)" fill="#FFFFFF"/>
</g>
</g>
<defs>
<path id="path0_fill" d="M 33.9938 62.8L 87.6738 62.8L 87.6738 66.144L 77.9938 66.144L 77.9938 182.656L 87.6738 182.656L 87.6738 186L 33.9938 186L 33.9938 182.656L 43.6737 182.656L 43.6737 66.144L 33.9938 66.144L 33.9938 62.8ZM 195.996 66.144L 195.996 186L 171.356 186L 110.988 72.128L 110.988 182.656L 120.668 182.656L 120.668 186L 96.5563 186L 96.5563 182.656L 106.236 182.656L 106.236 66.144L 96.5563 66.144L 96.5563 62.8L 145.132 62.8L 191.244 151.152L 191.244 66.144L 181.564 66.144L 181.564 62.8L 205.676 62.8L 205.676 66.144L 195.996 66.144ZM 321.998 62.8L 323.759 106.976L 320.414 106.976C 315.252 91.3707 310.676 80.752 306.687 75.12C 302.697 69.3707 296.948 66.496 289.439 66.496L 287.327 66.496L 287.327 182.304L 302.286 182.304L 302.286 186L 238.046 186L 238.046 182.304L 253.007 182.304L 253.007 66.496L 250.719 66.496C 243.209 66.496 237.401 69.488 233.294 75.472C 229.188 81.3387 224.67 91.84 219.742 106.976L 216.398 106.976L 218.159 62.8L 321.998 62.8ZM 387.931 123.696L 378.603 123.696L 378.603 182.656L 390.043 182.656L 390.043 186L 332.843 186L 332.843 182.656L 344.283 182.656L 344.283 66.144L 332.843 66.144L 332.843 62.8L 385.995 62.8C 401.248 62.8 412.043 63.6213 418.379 65.264C 424.832 66.7893 429.35 68.6667 431.931 70.896C 437.563 75.472 440.379 82.7467 440.379 92.72C 440.379 102.693 437.915 109.851 432.987 114.192C 428.059 118.416 420.55 120.939 410.459 121.76L 410.459 122.288C 419.963 123.579 426.592 126.395 430.347 130.736C 434.102 135.077 435.979 142.352 435.979 152.56L 435.979 161.888C 435.979 167.989 436.272 172.096 436.859 174.208C 437.563 176.32 438.971 177.376 441.083 177.376C 443.195 177.376 444.838 176.437 446.011 174.56C 447.302 172.565 448.475 168.459 449.531 162.24L 452.523 162.592C 451.232 172.565 448.944 179.253 445.659 182.656C 442.491 186.059 436.096 187.76 426.475 187.76C 416.854 187.76 409.99 185.531 405.883 181.072C 401.894 176.496 399.899 167.989 399.899 155.552L 399.899 142.704C 399.899 136.133 399.019 131.323 397.259 128.272C 395.616 125.221 392.507 123.696 387.931 123.696ZM 378.603 66.144L 378.603 120.352L 384.235 120.352C 390.923 120.352 395.851 118.299 399.019 114.192C 402.304 110.085 403.947 103.397 403.947 94.128L 403.947 89.024C 403.947 79.7547 402.363 73.6533 399.195 70.72C 396.144 67.6693 391.216 66.144 384.411 66.144L 378.603 66.144ZM 540.926 131.616L 540.926 118.592C 540.926 97.12 539.87 83.568 537.758 77.936C 535.411 71.4827 532.067 67.4933 527.726 65.968C 525.262 65.0293 522.27 64.56 518.75 64.56C 515.23 64.56 512.179 65.0293 509.598 65.968C 507.134 66.9067 505.081 68.5493 503.438 70.896C 501.795 73.2427 500.446 75.7067 499.39 78.288C 498.451 80.8693 497.689 84.5067 497.102 89.2C 496.398 96.0053 496.046 106.037 496.046 119.296L 496.046 131.968C 496.046 146.283 496.574 156.491 497.63 162.592C 498.803 168.576 500.211 172.859 501.854 175.44C 505.491 181.189 511.123 184.064 518.75 184.064C 528.019 184.064 534.003 180.192 536.702 172.448C 539.518 164.587 540.926 150.976 540.926 131.616ZM 518.398 187.76C 498.803 187.76 484.137 182.48 474.398 171.92C 464.777 161.243 459.966 145.872 459.966 125.808C 459.966 105.627 465.129 89.7867 475.454 78.288C 485.897 66.672 500.622 60.864 519.63 60.864C 538.638 60.864 552.953 66.3787 562.574 77.408C 572.313 88.32 577.182 103.867 577.182 124.048C 577.182 144.229 572.254 159.893 562.398 171.04C 552.659 182.187 537.993 187.76 518.398 187.76Z"/>
</defs>
</svg>
